<svg height="128" viewBox="0 0 64 64" width="128" xmlns="http://www.w3.org/2000/svg"><path d="m32 6c-14.359 0-26 11.641-26 26s11.641 26 26 26 26-11.641 26-26-11.641-26-26-26zm0 3c12.703 0 23 10.297 23 23s-10.297 23-23 23-23-10.297-23-23 10.297-23 23-23zm0 3c-6.805 0-12.819594 3.422859-16.433594 8.630859.29 0 .56836-.003906.81836-.003906 2.121 0 5.410156-.251953 5.410156-.251953 1.091-.063 1.214047 1.563266.123047 1.697266 0 0-1.113938.188-2.335938.25l7.376953 22.373046 4.425782-13.574218-3.134766-8.798828c-1.091-.063-2.152344-.25-2.152344-.25-1.091-.063-.967953-1.760266.123047-1.697266 0 0 3.357656.251953 5.347656.251953 2.121 0 5.410157-.251953 5.410157-.251953 1.091-.063 1.214046 1.563266.123046 1.697266 0 0-1.121937.188-2.335937.25l7.316406 22.246093 2.029297-6.912109c1.022-2.687 1.53711-4.949609 1.53711-6.724609 0-2.561-.884157-4.28125-1.660157-5.65625-1.022-1.705-1.966797-3.197344-1.966797-4.902344 0-1.749 1.183875-3.34675 2.921875-3.59375-3.492-2.974-8.008359-4.779297-12.943359-4.779297zm17.857422 11.044922c.022.375.03125.760109.03125 1.162109 0 2.097-.38411 4.463016-1.53711 7.416016l-5.833984 17.355469c5.681-3.532 9.482422-9.811516 9.482422-16.978516 0-3.222-.783578-6.257078-2.142578-8.955078zm-36.197266.998047c-1.063 2.441-1.660156 5.129031-1.660156 7.957031 0 7.729 4.414656 14.434672 10.847656 17.763672zm18.708985 9.779297-5.869141 17.390625c1.75.502 3.591.787109 5.5.787109 2.264 0 4.431891-.395797 6.462891-1.091797z"/></svg>