<svg height="100" viewBox="0 0 50 50" width="100" xmlns="http://www.w3.org/2000/svg"><path d="m29.867188 3.007813c-.105469.015625-.210938.046875-.3125.09375-.859375.425781-1.835938 1.691406-2.023438 1.941406-.011719.015625-.023437.03125-.03125.046875-.964844 1.445312-1.480469 3.136719-1.5 4.898437-.011719 1.320313.246094 2.628907.769531 3.890625 1.21875 2.925782 3.75 5.347657 6.761719 6.480469.101563.035156.199219.070313.375.132813.015625.007812.164063.054687.1875.058593l.109375.039063c.15625.050781.316406.101562.472656.132812.792969.160157 1.566407.25 2.292969.273438.125 0 .25.003906.375.003906 5.480469 0 7.605469-3.867187 8.3125-5.15625.070313-.125.121094-.226562.167969-.289062 0-.003907 0-.003907.003906-.007813.308594-.457031.191406-1.078125-.265625-1.390625-.453125-.308594-1.074219-.191406-1.386719.265625h-.003906c-1.460937 2.152344-3.960937 2.804688-7.425781 1.945313-.257813-.0625-.539063-.160157-.789063-.253907-.328125-.117187-.65625-.253906-.960937-.402343-.605469-.300782-1.175781-.660157-1.691406-1.058594-3.046875-2.363281-4.238282-7.28125-2.457032-10.121094.238282-.378906.195313-.871094-.105468-1.203125-.226563-.25-.554688-.363281-.875-.320312zm-8.859375 1.992187c-.226563-.003906-.457032.070313-.644532.226563-1.511718 1.230468-3.058593 3.246093-3.125 3.328125-.007812.015625-.015625.027343-.027343.042968-2.734375 3.980469-2.941407 9.644532-.523438 14.429688.378906.757812.808594 1.480469 1.265625 2.144531l.136719.195313c.386719.566406.820312 1.207031 1.375 1.707031.191406.21875.398437.429687.601562.632812l.097657.101563.082031.082031c.207031.199219.417969.402344.636719.597656h.003906c.015625.023438.039062.039063.058594.058594.246093.21875.496093.425781.828125.6875l.089843.066406c.257813.207032.519532.402344.789063.59375.027344.019532.054687.039063.082031.058594.09375.0625.1875.121094.28125.1875l.09375.0625.109375.070313c.199219.132812.394531.253906.671875.414062.179688.109375.371094.21875.496094.28125.054687.03125.113281.0625.25.136719l.304687.160156c.015625.007813.085938.039063.101563.046875.199219.101563.40625.199219.613281.292969l.316406.140625c.207032.089844.417969.175781.675782.273437l.117187.042969c.007813.007813.105469.042969.113281.046875.1875.066406.378907.132813.570313.195313l.4375.144531c.21875.074219.472656.160156.75.207031 1.363281.226563 2.6875.34375 3.941406.34375.148438 0 .296875-.003906.441406-.003906 11.039063-.242188 13.910157-9.621094 13.9375-9.714844.136719-.472656-.085937-.976562-.53125-1.1875-.445312-.210937-.976562-.0625-1.253906.34375-2.796875 4.085938-8.085937 5.8125-13.472656 4.390625-.25-.0625-.492188-.132812-.792969-.230469-.050781-.015625-.09375-.03125-.175781-.0625-.175781-.054687-.347656-.113281-.542969-.1875l-.277344-.105468c-.160156-.0625-.320312-.125-.515625-.210938l-.128906-.058594c-.238281-.101562-.46875-.214843-.675781-.316406l-.570313-.296875c-.128906-.0625-.242187-.132812-.417968-.238281l-.097657-.054688-.097656-.058593c-.144531-.085938-.289062-.175782-.421875-.269532l-.09375-.058593c-.007812-.003907-.085937-.058594-.09375-.066407-.117187-.074218-.230469-.148437-.339844-.21875-.242187-.171875-.480468-.351562-.757812-.570312l-.109375-.089844c-2.578125-2.058594-4.484375-4.808594-5.378906-7.757812-.832032-2.707032-.214844-6.25 1.652343-9.476563.242188-.417969.152344-.949219-.21875-1.261719-.183593-.15625-.410156-.238281-.636718-.238281zm-11.003907 3c-.238281 0-.480468.085938-.671875.257813-1.910156 1.714843-3.339843 3.9375-3.496093 4.191406-4.085938 5.949219-3.296875 15.195312-.492188 20.847656.054688.117188.113281.230469.171875.34375l.039063.0625c.050781.113281.109375.230469.128906.253906.03125.074219.078125.15625.097656.179688.046875.097656.09375.183594.179688.332031l.320312.550781c.046875.074219.09375.152344.109375.179688.0625.101562.128906.207031.195313.3125l.15625.25c.046875.074219.09375.140625.125.179687.15625.242188.3125.484375.484375.714844.007812.011719.015625.019531.023437.027344l.0625.085937c.140625.203125.285156.398438.414063.558594l.570312.722656c.007813.007813.070313.082032.074219.089844l.082031.09375c.171875.210938.355469.421875.539063.625.027343.03125.054687.058594.082031.089844.175781.191406.355469.382812.542969.582031l.179687.171875c.148438.15625.296875.308594.453125.453125 0 .003906.074219.074219.074219.074219l.15625.144531c.1875.179688.382812.359375.53125.484375.007812.011719.148437.132813.160156.140625.183594.164063.367188.320313.554688.472656l.957031.757813c.160156.117187.324219.234375.511719.371094.0625.046875.128906.09375.195312.136718.027344.023438.058594.046875.078125.058594l.71875.480469c.261719.171875.523438.332031.84375.523437l.171875.097657c.199219.117187.402344.234375.59375.335937.113281.0625.226563.117188.324219.167969.136719.074219.285156.15625.511719.265625.019531.011719.179687.089844.199218.097656.226563.113281.457032.21875.746094.347656 0 .003907.09375.046875.09375.046875.265625.113282.523438.222657.863281.359375.054688.023438.109375.042969.121094.046875.242188.09375.496094.1875.703125.261719.019531.007813.125.050781.144531.058594.277344.09375.550782.183594.902344.292969.058594.019531.121094.039062.128906.039062l.199219.0625c.242188.074219.484375.152344.746094.203125 1.859375.339844 3.675781.515625 5.394531.515625h.003906c14.324219 0 18.886719-11.527344 18.933594-11.644531.175781-.464844-.015625-.988281-.453125-1.230469-.429687-.238281-.976562-.125-1.28125.269531-3.675781 4.839844-10.609375 6.636719-18.546875 4.8125-.191406-.046875-.386719-.101562-.578125-.160156l-.375-.113281c-.253906-.078125-.507812-.164063-.753906-.25-.003906 0-.117188-.042969-.117188-.042969-.21875-.074219-.4375-.160156-.628906-.234375l-.21875-.085937c-.242187-.097657-.484375-.199219-.71875-.304688l-.136719-.058594c-.210937-.097656-.414062-.191406-.617187-.292968-.015625-.007813-.175781-.085938-.191406-.089844-.140625-.070313-.28125-.144531-.460938-.242188l-.816406-.4375c-.082031-.054687-.167969-.105468-.25-.148437-.246094-.152344-.5-.304688-.75-.464844-.058594-.035156-.109375-.074219-.207031-.140625-.171875-.109375-.339844-.222656-.585938-.394531l-.097656-.070313c-.167969-.117187-.332031-.242187-.46875-.34375-.085938-.0625-.171875-.132812-.3125-.238281-.125-.097656-.25-.191406-.367188-.285156l-.21875-.179688c-.183593-.148437-.355468-.304687-.535156-.457031-.023437-.023437-.042969-.039062-.070312-.058594-.199219-.183593-.402344-.367187-.644532-.597656l-.707031-.703125c-.171875-.175781-.34375-.355469-.539062-.570312-.179688-.199219-.351563-.398438-.582032-.671875l-.421875-.515625c-.050781-.074219-.105468-.148438-.171875-.226563-.144531-.195312-.289062-.386719-.433593-.589844-3.890625-5.359375-4.90625-16.546875-1.875-20.644531.304687-.410156.25-.988281-.132813-1.335937-.1875-.171875-.429687-.257813-.667969-.257813z"/></svg>