<svg height="24" viewBox="0 0 24 24" width="24" xmlns="http://www.w3.org/2000/svg"><path d="m15.231 11.231c-.305 0-.527.123-.668.369s-.211.684-.211 1.313v.439c0 .625.066 1.062.199 1.31s.357.372.674.372c.328 0 .576-.146.744-.439v-2.895c-.163-.312-.409-.469-.738-.469zm3.769-8.231h-14c-1.104 0-2 .895-2 2v14c0 1.105.896 2 2 2h14c1.104 0 2-.895 2-2v-14c0-1.105-.896-2-2-2zm-8.726 13.3-1.172-2.982-1.165 2.982h-1.999l2.051-4.301-2.01-4.23h1.975l1.148 2.93 1.148-2.93h1.975l-2.004 4.23 2.051 4.301zm7.366 0h-1.506l-.076-.645c-.34.508-.777.762-1.313.762-.664 0-1.171-.254-1.521-.762s-.528-1.254-.536-2.238v-.48c0-1.039.176-1.814.527-2.326s.863-.768 1.535-.768c.488 0 .895.211 1.219.633v-3.176h1.67v9z"/></svg>